<svg xmlns="http://www.w3.org/2000/svg" style="display:none">
  <symbol id="i-repo" viewBox="0 0 16 16"><path d="M2 2h5l1 2h6v10H2z" fill="none" stroke="currentColor" stroke-width="1.5"/></symbol>
  <symbol id="i-branch" viewBox="0 0 16 16"><circle cx="4.5" cy="3.5" r="1.8" fill="none" stroke="currentColor" stroke-width="1.5"/><circle cx="4.5" cy="12.5" r="1.8" fill="none" stroke="currentColor" stroke-width="1.5"/><circle cx="11.5" cy="6.5" r="1.8" fill="none" stroke="currentColor" stroke-width="1.5"/><path d="M4.5 5.3v5.4M11.5 8.3c0 2-3 2-5 2.5" fill="none" stroke="currentColor" stroke-width="1.5"/></symbol>
  <symbol id="i-commit" viewBox="0 0 16 16"><circle cx="8" cy="8" r="3" fill="none" stroke="currentColor" stroke-width="1.5"/><path d="M1.5 8h3.5M11 8h3.5" stroke="currentColor" stroke-width="1.5"/></symbol>
  <symbol id="i-pr" viewBox="0 0 16 16"><circle cx="4.5" cy="4" r="2" fill="none" stroke="currentColor" stroke-width="1.5"/><circle cx="4.5" cy="12" r="2" fill="none" stroke="currentColor" stroke-width="1.5"/><path d="M4.5 6v4M4.5 8h6a3 3 0 0 1 0 6h-2" fill="none" stroke="currentColor" stroke-width="1.5"/></symbol>
  <symbol id="i-issue" viewBox="0 0 16 16"><circle cx="8" cy="8" r="6" fill="none" stroke="currentColor" stroke-width="1.5"/><path d="M8 5v3.5" stroke="currentColor" stroke-width="1.5"/><circle cx="8" cy="10.8" r="0.9" fill="currentColor"/></symbol>
  <symbol id="i-check" viewBox="0 0 16 16"><path d="M3 8.5l3.2 3.2L13 5" fill="none" stroke="currentColor" stroke-width="2"/></symbol>
  <symbol id="i-x" viewBox="0 0 16 16"><path d="M4 4l8 8M12 4l-8 8" stroke="currentColor" stroke-width="2"/></symbol>
  <symbol id="i-dot" viewBox="0 0 16 16"><circle cx="8" cy="8" r="4" fill="currentColor"/></symbol>
  <symbol id="i-lock" viewBox="0 0 16 16"><rect x="3.5" y="7" width="9" height="6.5" fill="none" stroke="currentColor" stroke-width="1.5"/><path d="M5.5 7V5.5a2.5 2.5 0 0 1 5 0V7" fill="none" stroke="currentColor" stroke-width="1.5"/></symbol>
  <symbol id="i-star" viewBox="0 0 16 16"><path d="M8 2l1.8 3.8 4.2.5-3 3 .7 4.2L8 11.6l-3.7 1.9.7-4.2-3-3 4.2-.5z" fill="none" stroke="currentColor" stroke-width="1.5"/></symbol>
</svg>
